<svg id="Grupo_3890" data-name="Grupo 3890" xmlns="http://www.w3.org/2000/svg" xmlns:xlink="http://www.w3.org/1999/xlink" width="117.91" height="25.432" viewBox="0 0 117.91 25.432">
  <defs>
    <clipPath id="clip-path">
      <rect id="Rectángulo_3435" data-name="Rectángulo 3435" width="117.91" height="25.432" fill="#27181f"/>
    </clipPath>
  </defs>
  <g id="Grupo_3883" data-name="Grupo 3883" clip-path="url(#clip-path)">
    <path id="Trazado_3193" data-name="Trazado 3193" d="M143.292,76.287h-.019c-.075,0-.15.019-.244.019-.413,0-.732-.224-.732-1.125,0-.732,0-1.595,0-2.552,0-2.536.017-5.691.035-7.289-.007-.8-.332-1.7-1.5-1.7-.169,0-.432.019-.619.019a.557.557,0,0,0-.582.563.483.483,0,0,0,.525.488h.038a2.286,2.286,0,0,1,.3-.019c.751,0,.751.319.751,1.595,0,1.088-.018,2.589-.018,3.546,0,.244-.019.338-.056.338s-.094-.094-.188-.225a3.77,3.77,0,0,0-2.965-1.351,4.47,4.47,0,0,0,0,8.93,3.906,3.906,0,0,0,3.133-1.576c.038-.038.056-.056.075-.056.056,0,.075.075.093.187a1.538,1.538,0,0,0,1.708,1.332c.244,0,.75-.056.75-.582a.5.5,0,0,0-.488-.545m-5.235.208a3.129,3.129,0,0,1-3.19-3.452c0-2.158,1.294-3.47,3.189-3.471a3.475,3.475,0,0,1,0,6.923" transform="translate(-109.49 -52.095)" fill="#27181f"/>
    <path id="Trazado_3194" data-name="Trazado 3194" d="M181,72.637c0,.021,0,.045,0,.066s0,.019,0,.028Z" transform="translate(-148.159 -59.457)" fill="#27181f"/>
    <path id="Trazado_3195" data-name="Trazado 3195" d="M205.939,97.262c-.771-.27-.906-.732-.906-2.14,0-.733.038-1.735.1-2.371a5.243,5.243,0,0,0,.019-.54c0-2.159-1.216-2.95-3.009-2.95-1.657,0-3.276.83-3.276,1.562a.522.522,0,0,0,.54.52.537.537,0,0,0,.405-.193,3.038,3.038,0,0,1,2.256-.926c1.562,0,2,.828,2,1.889,0,.1-.019.212-.019.308,0,.135-.077.193-.309.232a31,31,0,0,0-3.566.791,2.575,2.575,0,0,0-2.063,2.391,2.871,2.871,0,0,0,3.124,2.66,3.562,3.562,0,0,0,2.93-1.486.1.1,0,0,1,.077-.058c.038,0,.057.039.077.1a1.641,1.641,0,0,0,1.428,1.233.522.522,0,0,0,.521-.54.49.49,0,0,0-.329-.482M204.03,94.1c0,2.969-1.831,3.374-2.814,3.374a1.842,1.842,0,0,1-2.062-1.619c0-1.35,1.6-1.736,4.626-2.219h.058c.135,0,.193.058.193.212Z" transform="translate(-162.166 -73.066)" fill="#27181f"/>
    <path id="Trazado_3196" data-name="Trazado 3196" d="M254.709,85.225h-.077c-.193.019-.367.039-.54.039-1.5,0-1.543-1.022-1.543-2.525,0-1.427.057-3.413.057-4.145,0-.231,0-.27.308-.27h1.7a.5.5,0,0,0,.54-.521.5.5,0,0,0-.54-.5H252.9c-.251,0-.289,0-.29-.212,0,0,.038-1.542.038-2.1a.56.56,0,1,0-1.119-.038v.482c0,.675-.019,1.6-.019,1.678,0,.173-.037.193-.211.193h-1.118a.512.512,0,1,0,0,1.022h1.137c.135,0,.193.019.193.212v.308c0,.945-.037,3.3-.037,4.531,0,.849,0,2.95,2.468,2.95.771,0,1.234-.1,1.234-.6a.478.478,0,0,0-.464-.5" transform="translate(-204.342 -60.892)" fill="#27181f"/>
    <path id="Trazado_3197" data-name="Trazado 3197" d="M298.163,97.262c-.771-.27-.906-.732-.906-2.14,0-.733.038-1.735.1-2.371a5.251,5.251,0,0,0,.019-.54c0-2.159-1.216-2.95-3.009-2.95-1.658,0-3.277.83-3.277,1.562a.522.522,0,0,0,.54.52.537.537,0,0,0,.405-.193,3.038,3.038,0,0,1,2.256-.926c1.562,0,2,.829,2,1.889,0,.1-.019.212-.019.308,0,.135-.077.193-.309.232a31.009,31.009,0,0,0-3.566.791,2.575,2.575,0,0,0-2.062,2.391,2.871,2.871,0,0,0,3.124,2.66,3.562,3.562,0,0,0,2.93-1.486.1.1,0,0,1,.077-.058c.038,0,.057.039.077.1a1.641,1.641,0,0,0,1.428,1.233.522.522,0,0,0,.521-.54.49.49,0,0,0-.329-.482M296.254,94.1c0,2.969-1.831,3.374-2.814,3.374a1.842,1.842,0,0,1-2.062-1.619c0-1.35,1.6-1.736,4.626-2.219h.058c.135,0,.193.058.193.212Z" transform="translate(-237.656 -73.066)" fill="#27181f"/>
    <path id="Trazado_3198" data-name="Trazado 3198" d="M349.471,93.536c-.6-.309-1.523-.694-2.063-.944a1.486,1.486,0,0,1-.945-1.272c0-.636.559-1.234,1.562-1.234.116,0,1.831,0,1.831,1.542a.5.5,0,0,0,.54.5.475.475,0,0,0,.482-.463v-.038c-.019-.443-.019-.733-.019-1,0-.289,0-.559.019-.964v-.019a.451.451,0,0,0-.483-.463.433.433,0,0,0-.442.308c-.019.058,0,.231-.1.231a.142.142,0,0,1-.116-.039,3.106,3.106,0,0,0-1.7-.52,2.248,2.248,0,0,0-1.059,4.357c2.237.926,3.085,1.387,3.085,2.409,0,.925-.945,1.485-1.927,1.485-1.1,0-2.063-.636-2.063-1.272,0-.135.039-.231.039-.366a.5.5,0,0,0-.52-.52.506.506,0,0,0-.54.5v.039c.019.462.038.752.038,1.041s-.019.578-.037,1v.039a.465.465,0,0,0,.5.462c.231,0,.462-.058.462-.54,0-.058.019-.1.058-.1a.244.244,0,0,1,.135.077,3.023,3.023,0,0,0,1.928.636c2.2,0,3.045-1.428,3.045-2.488a2.759,2.759,0,0,0-1.717-2.39" transform="translate(-282.449 -72.982)" fill="#27181f"/>
    <path id="Trazado_3199" data-name="Trazado 3199" d="M396.054,76.491c-.115,0-.212.019-.289.019a.714.714,0,0,1-.559-.231c-3.49-3.2-3.991-3.662-3.991-3.8,0-.058.039-.116.155-.193.944-.618,2.428-1.62,3.566-2.392a.923.923,0,0,1,.482-.174c.271,0,.116.019.386.019h.019a.507.507,0,0,0,.54-.5.47.47,0,0,0-.559-.5c-.5.019-.964.02-1.388.02-.444,0-.868,0-1.35-.019h-.039a.49.49,0,0,0-.52.5c0,.462.462.462.809.462.1,0,.135.019.135.058,0,.019-.019.058-.077.1-3.046,2.1-3.123,2.121-3.335,2.121a.289.289,0,0,1-.328-.308s.037-4.087.037-6.574c0-.424-.135-1.446-1.716-1.445-.674,0-1.021.058-1.021.559a.526.526,0,0,0,.54.54h.443c.482.019.636.231.636.771,0,1.041.02,2.333.02,3.683,0,2.352-.019,4.954-.056,6.979a.3.3,0,0,1-.328.328c-.309,0-.347-.019-.578-.019h-.019a.531.531,0,0,0-.559.541.5.5,0,0,0,.579.5c.443-.019.906-.038,1.388-.038.5,0,1,.019,1.5.038h.019a.522.522,0,1,0,0-1.041h-.019a4.878,4.878,0,0,1-.54.019.3.3,0,0,1-.328-.328c-.019-.925-.019-1.542-.02-2,0-1,.019-1.176.308-1.176a.688.688,0,0,1,.578.231c.6.616,2.179,2.081,3.2,3.083a.146.146,0,0,1,.039.077c0,.019,0,.135-.5.135a.452.452,0,0,0-.52.5.49.49,0,0,0,.52.5h.039c.444-.019.867-.038,1.292-.038s.887.019,1.388.038h.019a.515.515,0,0,0,.54-.54.477.477,0,0,0-.54-.5" transform="translate(-316.789 -52.104)" fill="#27181f"/>
    <path id="Trazado_3200" data-name="Trazado 3200" d="M455.456,96.119a.547.547,0,0,0-.386.173,3.453,3.453,0,0,1-2.8,1.273,3.149,3.149,0,0,1-3.24-3.392c0-.27.039-.347.231-.347.424,0,2.063.019,3.509.019.713,0,1.369,0,1.812-.019.983-.039,1.407-.579,1.407-1.293a3.592,3.592,0,0,0-3.8-3.161,4.409,4.409,0,0,0-4.3,4.667,4.308,4.308,0,0,0,4.358,4.549c2.429,0,3.778-1.466,3.778-1.91a.589.589,0,0,0-.578-.559m-3.241-5.784a2.422,2.422,0,0,1,2.642,2c0,.308-.174.521-.636.54-.539.019-1.62.019-2.622.02-2.236,0-2.41,0-2.41-.192a3.122,3.122,0,0,1,3.026-2.373" transform="translate(-366.629 -73.156)" fill="#27181f"/>
    <path id="Trazado_3201" data-name="Trazado 3201" d="M505.771,85.229h-.077c-.193.019-.367.039-.54.039-1.5,0-1.542-1.022-1.543-2.526,0-1.426.057-3.413.057-4.145,0-.231,0-.27.308-.27h1.7a.512.512,0,1,0,0-1.022h-1.716c-.251,0-.289,0-.29-.212,0,0,.038-1.542.038-2.1a.56.56,0,1,0-1.118-.038v.482c0,.675-.019,1.6-.019,1.678,0,.173-.038.193-.211.193h-1.118a.512.512,0,1,0,0,1.022h1.137c.135,0,.193.019.193.212v.308c0,.945-.038,3.3-.037,4.531,0,.848,0,2.95,2.469,2.949.771,0,1.234-.1,1.234-.6a.478.478,0,0,0-.463-.5" transform="translate(-409.85 -60.896)" fill="#27181f"/>
    <path id="Trazado_3202" data-name="Trazado 3202" d="M548.734,95.876a.606.606,0,0,0-.5.289,3.034,3.034,0,0,1-2.468,1.119,3.625,3.625,0,0,1,0-7.229,2.532,2.532,0,0,1,1.967.789c.231.27.173.5.193.907a.51.51,0,0,0,.54.462.5.5,0,0,0,.558-.482v-.039c-.019-.443-.019-.752-.019-1.041,0-.308,0-.6.019-1V89.61a.5.5,0,0,0-.56-.482c-.212,0-.442.1-.462.328-.019.1-.039.212-.1.212-.039,0-.058-.019-.1-.038a4.362,4.362,0,0,0-6.516,4.147,4.383,4.383,0,0,0,4.532,4.549c2.082,0,3.527-1.293,3.527-1.851a.617.617,0,0,0-.617-.6" transform="translate(-443.077 -72.894)" fill="#27181f"/>
    <path id="Trazado_3203" data-name="Trazado 3203" d="M602.051,76.4h-.019c-.27,0-.251.019-.54.019-.231,0-.328-.135-.328-.347,0-1.523-.02-3.74-.039-4.55a3.053,3.053,0,0,0-3.221-3.084,3.61,3.61,0,0,0-2.853,1.312c-.039.039-.058.058-.077.058s-.038-.039-.038-.1c0-.27.018-2,.018-3.566q0-.579,0-1.1a1.344,1.344,0,0,0-1.31-1.465,4.194,4.194,0,0,0-.482-.038c-.829,0-.983.251-.983.578a.526.526,0,0,0,.54.54h.019a3.751,3.751,0,0,1,.424-.019c.5.019.655.289.655.79,0,1.157.02,2.718.021,4.357,0,2.313-.018,4.742-.037,6.3a.29.29,0,0,1-.309.328c-.308,0-.366-.019-.617-.019h-.019a.53.53,0,0,0-.558.541.5.5,0,0,0,.578.5c.444-.019.925-.038,1.408-.039s1,.019,1.5.038h.019a.523.523,0,1,0-.02-1.041,4.837,4.837,0,0,1-.54.019.3.3,0,0,1-.328-.328c0-.906-.019-1.754-.02-2.468,0-.693.019-1.272.019-1.638a2.816,2.816,0,0,1,2.872-2.526,2.163,2.163,0,0,1,2.218,2.274c.02.367.039,1.273.039,2.275,0,.713-.019,1.446-.019,2.082a.3.3,0,0,1-.309.328c-.309,0-.328-.019-.578-.019h-.019a.53.53,0,0,0-.558.54.5.5,0,0,0,.578.5c.444-.02.906-.039,1.388-.039.5,0,1,.019,1.5.038h.019a.522.522,0,1,0,0-1.041" transform="translate(-484.73 -52.016)" fill="#27181f"/>
    <path id="Trazado_3204" data-name="Trazado 3204" d="M20.159,58.163l-2.206-1.645V46.7a1.774,1.774,0,0,0-1.772-1.772H1.772A1.774,1.774,0,0,0,0,46.7v10.45a1.775,1.775,0,0,0,1.772,1.772H8.2L4.933,61.362a.472.472,0,1,0,.565.756l3.5-2.606,3.5,2.606a.472.472,0,1,0,.565-.756L9.788,58.927h6.393a1.774,1.774,0,0,0,1.725-1.374l1.741,1.3a.429.429,0,1,0,.512-.688M17.1,55.879,12.631,52.55a.429.429,0,1,0-.512.688l4.976,3.71v.207a.974.974,0,0,1-.586.914H2.1c-.832,0-1.243-.41-1.243-.914V46.7a.916.916,0,0,1,.914-.914H16.181a.915.915,0,0,1,.914.914Z" transform="translate(0 -36.78)" fill="#27181f"/>
    <path id="Trazado_3205" data-name="Trazado 3205" d="M345.705,9.013h.652a6.511,6.511,0,0,0,1.4-.135,3,3,0,0,0,1.036-.419,1.868,1.868,0,0,0,.646-.733,2.413,2.413,0,0,0,.223-1.085,2,2,0,0,0-.834-1.781,4.238,4.238,0,0,0-2.4-.57q-.466,0-1.019.037a6.383,6.383,0,0,0-1.01.139v7.078h1.305Zm0-3.556c.213-.021.487-.031.814-.031a4,4,0,0,1,.7.057,1.777,1.777,0,0,1,.564.191.974.974,0,0,1,.373.373,1.183,1.183,0,0,1,.135.591,1.023,1.023,0,0,1-.5,1v0a3.206,3.206,0,0,1-1.447.263h-.633Z" transform="translate(-281.911 -3.506)" fill="#27181f"/>
    <path id="Trazado_3206" data-name="Trazado 3206" d="M380.571,19.194a2.371,2.371,0,0,0,.824-.579,2.6,2.6,0,0,0,.528-.9,3.493,3.493,0,0,0,.186-1.17,3.358,3.358,0,0,0-.192-1.164,2.663,2.663,0,0,0-.526-.9,2.345,2.345,0,0,0-.823-.575,2.7,2.7,0,0,0-1.051-.2,2.65,2.65,0,0,0-1.046.2,2.4,2.4,0,0,0-.823.575,2.627,2.627,0,0,0-.543.9,3.373,3.373,0,0,0-.191,1.164,3.418,3.418,0,0,0,.191,1.17,2.675,2.675,0,0,0,.534.9,2.387,2.387,0,0,0,.814.579,2.623,2.623,0,0,0,1.056.207,2.658,2.658,0,0,0,1.061-.207m-2.021-1.359a2.157,2.157,0,0,1-.346-1.294,2.112,2.112,0,0,1,.346-1.278,1.23,1.23,0,0,1,1.937,0,2.108,2.108,0,0,1,.347,1.278,2.15,2.15,0,0,1-.349,1.294h0a1.222,1.222,0,0,1-1.937,0" transform="translate(-308.526 -11.217)" fill="#27181f"/>
    <path id="Trazado_3207" data-name="Trazado 3207" d="M416.307,14.442h-1.294q-.091.435-.218.938t-.266,1.025q-.139.524-.286,1.02c-.1.331-.191.633-.281.911q-.155-.476-.3-.984t-.279-1.015q-.13-.507-.243-.989t-.207-.9h-.951q-.09.425-.213.9t-.254.989q-.135.508-.285,1.015t-.307.984c-.1-.277-.194-.579-.291-.911s-.19-.671-.281-1.02-.176-.691-.26-1.025-.157-.648-.218-.938h-1.329q.217.8.446,1.564t.458,1.46q.228.694.452,1.305t.436,1.085h1.029q.272-.766.543-1.628t.512-1.776q.238.912.523,1.776t.554,1.628h1.017q.217-.476.446-1.085t.452-1.305q.228-.693.452-1.46t.446-1.564" transform="translate(-334.414 -11.822)" fill="#27181f"/>
    <path id="Trazado_3208" data-name="Trazado 3208" d="M455.626,18.58a2.318,2.318,0,0,0,.87.591,3.334,3.334,0,0,0,1.241.207,4.828,4.828,0,0,0,.549-.031c.181-.021.346-.046.5-.078a4.206,4.206,0,0,0,.413-.1,1.971,1.971,0,0,0,.285-.11l-.165-1.025a3.4,3.4,0,0,1-.6.177,3.871,3.871,0,0,1-.833.083,1.753,1.753,0,0,1-1.186-.357,1.429,1.429,0,0,1-.46-1.01h3.573c.006-.069.012-.146.016-.232s0-.164,0-.233a3,3,0,0,0-.627-2.07,2.227,2.227,0,0,0-1.745-.695,2.491,2.491,0,0,0-.932.181,2.336,2.336,0,0,0-.808.543,2.635,2.635,0,0,0-.564.9,3.4,3.4,0,0,0-.212,1.253,3.64,3.64,0,0,0,.165,1.124,2.417,2.417,0,0,0,.508.891m.743-3.044h0a1.3,1.3,0,0,1,.232-.4,1.156,1.156,0,0,1,.368-.284,1.121,1.121,0,0,1,.508-.109,1.078,1.078,0,0,1,.481.1,1,1,0,0,1,.342.271,1.176,1.176,0,0,1,.213.4,1.668,1.668,0,0,1,.072.491h-2.33a2.222,2.222,0,0,1,.113-.469" transform="translate(-372.404 -11.206)" fill="#27181f"/>
    <path id="Trazado_3209" data-name="Trazado 3209" d="M492.28,15.031l.217-1.056c-.062-.021-.145-.043-.249-.067s-.209-.036-.319-.057-.222-.031-.331-.043a2.7,2.7,0,0,0-.29-.015,5.607,5.607,0,0,0-1.206.119,6.883,6.883,0,0,0-.9.253v5.156h1.253V14.98a2.846,2.846,0,0,1,.326-.072,2.561,2.561,0,0,1,.44-.042,3.128,3.128,0,0,1,.633.057,4.133,4.133,0,0,1,.431.109" transform="translate(-400.435 -11.29)" fill="#27181f"/>
    <path id="Trazado_3210" data-name="Trazado 3210" d="M513.051,13.687a2.5,2.5,0,0,0-.932.181,2.329,2.329,0,0,0-.808.543,2.638,2.638,0,0,0-.564.9,3.414,3.414,0,0,0-.212,1.253,3.629,3.629,0,0,0,.165,1.124,2.415,2.415,0,0,0,.506.886,2.317,2.317,0,0,0,.87.591,3.327,3.327,0,0,0,1.243.212,4.785,4.785,0,0,0,.549-.031c.181-.021.346-.046.5-.078a4.221,4.221,0,0,0,.413-.1,1.952,1.952,0,0,0,.285-.109l-.165-1.025a3.422,3.422,0,0,1-.6.176,3.867,3.867,0,0,1-.834.083,1.752,1.752,0,0,1-1.186-.357,1.429,1.429,0,0,1-.46-1.01H515.4c.006-.069.012-.146.015-.232s.005-.164.005-.234a3,3,0,0,0-.627-2.07,2.228,2.228,0,0,0-1.745-.695M511.838,16a2.158,2.158,0,0,1,.114-.468h0a1.293,1.293,0,0,1,.232-.4,1.151,1.151,0,0,1,.368-.284,1.119,1.119,0,0,1,.507-.109,1.086,1.086,0,0,1,.482.1,1,1,0,0,1,.341.271,1.175,1.175,0,0,1,.213.4,1.664,1.664,0,0,1,.072.491Z" transform="translate(-417.902 -11.201)" fill="#27181f"/>
    <path id="Trazado_3211" data-name="Trazado 3211" d="M543.858,7.437a2.392,2.392,0,0,0,.865.564,3.153,3.153,0,0,0,1.15.19,7.256,7.256,0,0,0,1.185-.09,7.282,7.282,0,0,0,.937-.207V.025l-1.253.207v2.6a3.131,3.131,0,0,0-.517-.207,2.348,2.348,0,0,0-.694-.09,2.453,2.453,0,0,0-1.025.2,2.1,2.1,0,0,0-.756.574,2.559,2.559,0,0,0-.471.9,3.972,3.972,0,0,0-.16,1.165,3.408,3.408,0,0,0,.191,1.176,2.488,2.488,0,0,0,.549.891m.859-3.367h0a1.122,1.122,0,0,1,1-.466,1.719,1.719,0,0,1,.584.1,1.976,1.976,0,0,1,.44.213V7.022a3.416,3.416,0,0,1-.347.057,4.468,4.468,0,0,1-.512.025,1.339,1.339,0,0,1-1.085-.47,1.963,1.963,0,0,1-.394-1.3,2.225,2.225,0,0,1,.314-1.264" transform="translate(-444.573 -0.02)" fill="#27181f"/>
    <path id="Trazado_3212" data-name="Trazado 3212" d="M594.2,8.171a3.154,3.154,0,0,0,1.151-.2,2.359,2.359,0,0,0,.864-.57,2.527,2.527,0,0,0,.549-.9,3.4,3.4,0,0,0,.191-1.176,3.937,3.937,0,0,0-.16-1.155,2.646,2.646,0,0,0-.46-.9,2,2,0,0,0-.751-.574,2.7,2.7,0,0,0-1.719-.112,2.958,2.958,0,0,0-.533.207V0l-1.254.207V7.87a7.354,7.354,0,0,0,.937.207,7.264,7.264,0,0,0,1.185.094m-.43-4.493a1.786,1.786,0,0,1,.585-.09,1.12,1.12,0,0,1,1,.466,2.226,2.226,0,0,1,.317,1.266,1.964,1.964,0,0,1-.39,1.29,1.339,1.339,0,0,1-1.085.47,4.439,4.439,0,0,1-.513-.025A3.493,3.493,0,0,1,593.336,7l0-3.113a1.774,1.774,0,0,1,.44-.206" transform="translate(-484.652)" fill="#27181f"/>
    <path id="Trazado_3213" data-name="Trazado 3213" d="M621.985,20.734a2.044,2.044,0,0,1-.739-.145l-.227,1a1.9,1.9,0,0,0,.43.135,2.678,2.678,0,0,0,.575.062,2.711,2.711,0,0,0,.767-.1,1.739,1.739,0,0,0,.6-.317,2.4,2.4,0,0,0,.488-.549,5.622,5.622,0,0,0,.424-.8,39.507,39.507,0,0,0,1.944-5.592h-1.3q-.238.974-.527,2.014t-.618,1.963q-.2-.446-.4-.964t-.375-1.04q-.175-.524-.327-1.031t-.254-.942h-1.336a27.4,27.4,0,0,0,.971,2.858q.543,1.347,1.139,2.486a1.907,1.907,0,0,1-.484.724,1.15,1.15,0,0,1-.763.23" transform="translate(-508.339 -11.817)" fill="#27181f"/>
  </g>
</svg>
