<svg xmlns="http://www.w3.org/2000/svg" width="87.448" height="32.885" viewBox="0 0 87.448 32.885">
  <g id="Grupo_1534" data-name="Grupo 1534" transform="translate(-234.977 -540.573)">
    <path id="Trazado_873" data-name="Trazado 873" d="M333.5,598.19H291.531a3.1,3.1,0,0,1-3.1-3.1v-5.343a3.1,3.1,0,0,1,3.1-3.1H333.5a3.1,3.1,0,0,1,3.1,3.1v5.343a3.1,3.1,0,0,1-3.1,3.1" transform="translate(-33.992 -29.299)" fill="#80cac7"/>
    <path id="Trazado_874" data-name="Trazado 874" d="M333.2,598.062H291.231a3.275,3.275,0,0,1-3.271-3.271v-5.343a3.275,3.275,0,0,1,3.271-3.271H333.2a3.275,3.275,0,0,1,3.271,3.271v5.343a3.275,3.275,0,0,1-3.271,3.271M291.231,586.52a2.931,2.931,0,0,0-2.927,2.927v5.343a2.931,2.931,0,0,0,2.927,2.927H333.2a2.931,2.931,0,0,0,2.927-2.927v-5.343a2.931,2.931,0,0,0-2.927-2.927Zm1.931,8.734v-5.687h3.726v.631H293.87v1.833h2.959v.631H293.87v1.961h3.018v.631Zm9.387,0-3.317-4.536v4.536h-.707v-5.687h.725l3.274,4.442v-4.442h.707v5.687Zm5.234,0v-5.687h.708v5.056h2.643v.631ZM313,589.09h-.486l1.262-1.228h.665Zm-.358.478h.708v5.687h-.708Zm6.574,5.687-3.317-4.536v4.536h-.707v-5.687h.725l3.274,4.442v-4.442h.708v5.687Zm2.523,0v-5.687h3.726v.631h-3.018v1.833h2.959v.631h-2.959v1.961h3.018v.631Zm9.421,0-.5-1.262h-2.831l-.5,1.262h-.81l2.285-5.687h.878l2.293,5.687Zm-1.918-4.954-1.211,3.061h2.413Zm14.1-1.36a.2.2,0,0,0,.256-.107l.841-2.042a.2.2,0,0,0,0-.15.192.192,0,0,0-.107-.106.2.2,0,0,0-.256.106l-.841,2.042a.2.2,0,0,0,.107.256m-1.8-.1a.2.2,0,0,0,.257.105.2.2,0,0,0,.105-.256l-.85-2.039a.2.2,0,0,0-.256-.105.2.2,0,0,0-.106.256Zm-1.083,2.631-2.039.85a.2.2,0,0,0,.151.362l2.039-.85a.2.2,0,1,0-.151-.362m4.228-1.337,2.039-.85a.2.2,0,1,0-.151-.362l-2.039.85a.2.2,0,1,0,.151.362m-6.273-.831,2.043.841a.2.2,0,0,0,.15,0,.2.2,0,0,0,.106-.256.2.2,0,0,0-.106-.106l-2.043-.841a.2.2,0,0,0-.256.107.2.2,0,0,0,.107.256m14.446,7.529-1.329-3.788a1.2,1.2,0,0,0-.644-.636,1.212,1.212,0,0,0-.923-.017,1.179,1.179,0,0,0-.481.358l-.159.2-.126-.222a1.237,1.237,0,0,0-1.5-.517,1.2,1.2,0,0,0-.483.358l-.159.2-.125-.221a1.236,1.236,0,0,0-1.5-.515,1.2,1.2,0,0,0-.475.349l-.184.224-.784-1.939a1.207,1.207,0,0,0-1.57-.661,1.2,1.2,0,0,0-.663,1.563l2.721,6.728-3.176-.8a1.437,1.437,0,0,0-1.687.824.906.906,0,0,0,.481,1.187l6.238,2.646a3.763,3.763,0,0,0,2.9.024l1.482-.6a3.776,3.776,0,0,0,2.148-4.75m-.433,2.578a3.382,3.382,0,0,1-1.856,1.825h0l-1.482.6a3.387,3.387,0,0,1-2.607-.022l-6.239-2.646a.532.532,0,0,1-.281-.7,1.065,1.065,0,0,1,1.247-.608l3.537.886a.187.187,0,0,0,.219-.252l-2.859-7.07a.83.83,0,0,1,1.094-1.072.823.823,0,0,1,.443.451l1.907,4.714a.187.187,0,1,0,.348-.14l-.785-1.942a.827.827,0,0,1,.468-1.062.838.838,0,0,1,1.075.456l.779,1.926a.187.187,0,0,0,.347-.141l-.4-.994a.826.826,0,0,1,.467-1.066.837.837,0,0,1,1.075.455l.393.969.067.073,0,0,.023.026,0,0a.184.184,0,0,0,.166.012.187.187,0,0,0,.1-.244l-.023-.056a.826.826,0,0,1,.468-1.063,1.052,1.052,0,0,1,1.183.44l1.326,3.781a4.155,4.155,0,0,1-.193,2.453" transform="translate(-33.692 -28.999)" fill="#381235"/>
    <path id="Trazado_875" data-name="Trazado 875" d="M254.542,545.4c.429.619,1.074,2.514.855,2.92-.117.216-.833.355-1.314.425l-.173.024-.166.02-.1.011-.178.016-.009-.178c-.01-.2-.016-.461-.013-.752,0-.134,0-.275.01-.419,0-.116.01-.234.017-.353.012-.191.028-.383.049-.571.136-1.213.391-1.4.6-1.429.189-.026.334.151.428.287m10.682,3.573a1.474,1.474,0,0,0,.163.167,1.2,1.2,0,0,0,.16.12.872.872,0,0,0,.456.138h.035c.448-.021.9-.785.826-2.415a3.263,3.263,0,0,0-.737-2.211.827.827,0,0,0-.6-.24.669.669,0,0,0-.467.233,2.18,2.18,0,0,0-.413,1.232c-.006.063-.011.128-.016.195s-.008.145-.01.221c-.006.215,0,.446.008.693a3.177,3.177,0,0,0,.592,1.866m1.609,5.748c-1.262.056-1.88.087-3.147.158l-.122.006-.033.118a.71.71,0,0,0-.015.247c.026.466.406.771,1.049.869a3.187,3.187,0,0,0,.482.034c.069,0,.141,0,.213-.005.255-.013.508-.034.758-.062a9.573,9.573,0,0,0,2.178-.478l.22-.081-.143-.186a1.576,1.576,0,0,0-1.438-.621M304.322,548a.984.984,0,0,0-.726.262,2.651,2.651,0,0,0-.648.911c-.025.054-.049.108-.071.164s-.044.11-.064.166a3.812,3.812,0,0,0-.21.938,1.574,1.574,0,0,0,.107.807.862.862,0,0,0,.118.19.73.73,0,0,0,.138.128.659.659,0,0,0,.32.119l.064,0c.419,0,.755-.374,1.026-1.141.617-1.749.622-2.147.535-2.317s-.569-.228-.589-.23m-10.2-1.167a2.1,2.1,0,0,1-1.265,1.218l-.144.04-.06-.137a1.028,1.028,0,0,0-.641-.473l-.181,3.879a8.2,8.2,0,0,0,.1,1.3,4.881,4.881,0,0,1,.064.688.724.724,0,0,1-.47.619,5.784,5.784,0,0,1-.94.051h-.025a3.73,3.73,0,0,1,.048.555.724.724,0,0,1-.465.621,6.253,6.253,0,0,1-1.037.056c-.431,0-.961-.013-1.57-.033a9.672,9.672,0,0,1-2.568-.315l-.011-.006a.616.616,0,0,1-.268-.573c0-.131.033-.369.072-.671.03-.235.066-.513.1-.8a2.282,2.282,0,0,1-1.195.869c-.271,1.148-1.945,1.569-3,1.554a2.953,2.953,0,0,1-2.272-1.1,4.985,4.985,0,0,1-3.25,1.119h-.016a4.767,4.767,0,0,1-3.171-1.193c.006.058.012.116.013.175a2.972,2.972,0,0,1-1.572,2.766c-1.063,2.206-4.792,2.366-6.16,2.425l-.275.013c-.406.02-.9.044-1.419.044-1.529,0-3.259-.209-3.509-1.354-.14-.639.427-1.423,1.126-1.894a1.817,1.817,0,0,1-1.381-1.562,2.059,2.059,0,0,1,1.286-1.893,1.781,1.781,0,0,1,.543-.883,3.768,3.768,0,0,1-1.587-2.439c-.117.046-.241.088-.371.126.01.106.019.213.024.322.021.369-.288.657-.758.872a3.082,3.082,0,0,1,1.776,1.571l.032.076-.039.072a3.916,3.916,0,0,1-1.216,1.337l-.023.043a4.252,4.252,0,0,1-2.118,1.858,8.719,8.719,0,0,1-2.714.669c-.224.021-.447.031-.668.031a6.2,6.2,0,0,1-3.68-1.138,5.241,5.241,0,0,1-1.391-1.508,3.9,3.9,0,0,1-.234.326,4.415,4.415,0,0,1-.731.713,3.545,3.545,0,0,1-.451.727,7.5,7.5,0,0,1-4.842,2.262,14.471,14.471,0,0,1-1.6.095c-1.728,0-3.63-.381-3.956-1.99a1.783,1.783,0,0,1,.313-1.413,2.594,2.594,0,0,1,.812-.726,1.868,1.868,0,0,1,.323-.747,2.556,2.556,0,0,1,.7-.654c-1.881-.978-2.953-2.225-3.194-3.724a3.05,3.05,0,0,1,.642-2.421,4.652,4.652,0,0,1,.739-.751,3.51,3.51,0,0,1,.441-.73,7.378,7.378,0,0,1,4.772-2.344c1.443-.138,4.829-.216,5.139,2.046a1.881,1.881,0,0,1-.382,1.433,2.293,2.293,0,0,1-.863.673,1.909,1.909,0,0,1-.354.771,2.158,2.158,0,0,1-.339.35,9.2,9.2,0,0,1,2.407,1.6,5.909,5.909,0,0,1,1.191-2.373,6.049,6.049,0,0,1,.743-.751,5.966,5.966,0,0,1,.479-.663,6.258,6.258,0,0,1,4.415-2.209,5.513,5.513,0,0,1,4.15,1.219,4.9,4.9,0,0,1,1.362,2.073,5,5,0,0,1,1-1.191c.11-.1.226-.19.344-.279a5.042,5.042,0,0,1,.954-1.1,6.342,6.342,0,0,1,3.718-1.5,7.923,7.923,0,0,1,1.685.091c-.027-.071-.053-.137-.08-.192l-.077-.162.165-.071a3.569,3.569,0,0,1,1.258-.307c.078,0,.155,0,.23,0a3.068,3.068,0,0,0-.237-.8l-.077-.163.166-.07a3.593,3.593,0,0,1,1.265-.3,1.969,1.969,0,0,1,1.453.506,1.91,1.91,0,0,1,.577,1.358,2.33,2.33,0,0,1-1.377,1.869c.042.052.08.106.118.16a2.668,2.668,0,0,1,.923-.572c.225-1.119,1.781-1.578,2.777-1.6a4.115,4.115,0,0,1,3.56,1.48,2.751,2.751,0,0,1,.363-.131,1.142,1.142,0,0,1,.365-.73,2.686,2.686,0,0,1,1.867-.669c1.143.012,3.821.039,4.221,1.7l.005.021-.013.64a2.8,2.8,0,0,1,.37-.214c.1-.048.206-.091.315-.131.378-1.156,2-1.541,3.041-1.5a2.525,2.525,0,0,1,2.334,1.37,3.382,3.382,0,0,1,2.948-1.5,2.321,2.321,0,0,1,1.672.666,1.709,1.709,0,0,1,.414,1.279,2.386,2.386,0,0,1-1.525,2.263l-.144.039Zm-2.443.41v-.016a1.447,1.447,0,0,1,.016-.153,1.522,1.522,0,0,1,.48-.893,1.215,1.215,0,0,1,.874-.334,1.9,1.9,0,0,1,.925.293,1.432,1.432,0,0,1,.152.114,1.2,1.2,0,0,1,.143.147c.017.021.035.04.05.062a2.151,2.151,0,0,0,1.147-1.909,1.354,1.354,0,0,0-.326-1.028,1.993,1.993,0,0,0-1.432-.553,3.05,3.05,0,0,0-2.348.969,2.859,2.859,0,0,0-.195.235c-.058.078-.112.158-.162.242-.032.054-.063.109-.091.164l-.17.339-.126-.31-.017-.042c-.016-.04-.033-.078-.051-.115-.024-.054-.049-.1-.075-.155a2.183,2.183,0,0,0-2.045-1.194,3.044,3.044,0,0,0-2.586,1.025,1.26,1.26,0,0,0-.1.2,1.324,1.324,0,0,0-.078.353.075.075,0,0,0,0,.016,2.167,2.167,0,0,1,1.079,1.981l-.112,4.044c-.016.566-.1,1.23-.169,1.715-.037.281-.07.523-.073.635a.294.294,0,0,0,.1.269,9.571,9.571,0,0,0,2.426.287c.316.012.789.029,1.248.036l.174,0h.174a6.2,6.2,0,0,0,.94-.043.408.408,0,0,0,.2-.3,5.149,5.149,0,0,0-.061-.628,8.333,8.333,0,0,1-.1-1.357l.184-3.929Zm-6.968,4.982a.353.353,0,0,0-.028-.157,2.125,2.125,0,0,1-.434-1.4l.086-4.258,0-.212,0-.2.009-.43.008-.378.005-.279.019-.9c-.356-1.384-2.827-1.41-3.885-1.42a2.32,2.32,0,0,0-1.622.569.905.905,0,0,0-.248.407.562.562,0,0,0-.018.139.259.259,0,0,0,.005.038.35.35,0,0,0,.074.162l.031.036a1.306,1.306,0,0,1,.661,1.322l-.008,5.677-.053.051a.94.94,0,0,1-.654.276h0a.888.888,0,0,1-.635-.253,1.082,1.082,0,0,1-.173-.22,1.577,1.577,0,0,1-.174-.438,2.544,2.544,0,0,1-.066-.588l-.014-3.721V545.4l0-1.035v-.434a3.814,3.814,0,0,0-3.242-1.292,2.782,2.782,0,0,0-2.381,1.125.989.989,0,0,0-.087.378v.006a.407.407,0,0,0,.111.273,1.763,1.763,0,0,1,.639,1.422l.113,4.938a2.256,2.256,0,0,0,.674,1.688,4.4,4.4,0,0,0,3.029,1.18h.007a4.621,4.621,0,0,0,3.175-1.141l.148-.138.112.168A2.6,2.6,0,0,0,282,553.654a4.48,4.48,0,0,0,1.345-.189c.057-.018.114-.036.169-.056s.111-.042.164-.064a1.459,1.459,0,0,0,1.027-1.12m-13.087,2.058a1.885,1.885,0,0,0-.643-1.378,4.539,4.539,0,0,0-3.118-.948c-.129.007-.263.022-.4.041q-.269.039-.556.109a8.426,8.426,0,0,0-1.392.479c-.184.081-.368.169-.552.263-.08.041-.16.083-.24.127l-.24.132-.012-.22,0-.054c0-.04,0-.08,0-.118,0-.059,0-.117,0-.173a1.429,1.429,0,0,1,1.151-1.34l.023-.008.163-.008a5.758,5.758,0,0,0,3.043-1c.125-.087.245-.179.361-.275.07-.058.138-.118.2-.179.043-.04.084-.082.126-.123a4.514,4.514,0,0,0,1.341-2.939c.009-.142.012-.286.009-.431,0-.005,0-.01,0-.015a2.99,2.99,0,0,0-.03-.326,2.77,2.77,0,0,0-.237-.793c-.031-.066-.064-.13-.1-.194s-.065-.112-.1-.168-.065-.1-.1-.143-.076-.1-.115-.144c-.026-.031-.051-.063-.078-.094l-.043-.048-.115-.127.2-.09.015-.007c.062-.028.123-.059.184-.092s.126-.07.187-.109a1.892,1.892,0,0,0,1.006-1.446,1.569,1.569,0,0,0-.47-1.116,1.63,1.63,0,0,0-1.206-.412,3.154,3.154,0,0,0-.982.211,3.632,3.632,0,0,1,.208.831c.008.059.014.119.018.18,0,.044.007.088.008.133,0,.017,0,.033,0,.05a4.055,4.055,0,0,1-.092,1.006l-.048.207-.193-.09a5.562,5.562,0,0,0-1.065-.358c-.06-.015-.122-.028-.184-.041s-.122-.025-.184-.036a7.8,7.8,0,0,0-1.391-.129q-.2,0-.385.011a5.929,5.929,0,0,0-3.788,1.689,4.861,4.861,0,0,0-.351.4,4.575,4.575,0,0,0-.289.409,3.833,3.833,0,0,0-.593,2.26,3.458,3.458,0,0,0,2,2.94l.2.1-.14.169a3.094,3.094,0,0,1-.935.778c-.043.025-.093.052-.149.083-.1.055-.214.118-.332.192-.054.034-.109.07-.163.109s-.1.074-.147.115a1.679,1.679,0,0,0-.348.393,1.3,1.3,0,0,0-.137.294,1.283,1.283,0,0,0-.051.23,1.447,1.447,0,0,0-.012.273c.048.872.964,1.234,1.507,1.373l.458.117-.426.2a2.722,2.722,0,0,0-1.168,1.074,1.349,1.349,0,0,0-.13.328.7.7,0,0,0-.01.307c.269,1.251,3.3,1.119,4.59,1.062l.28-.012a10.673,10.673,0,0,0,4.667-.977c.084-.047.163-.1.24-.146s.155-.106.226-.162a2.553,2.553,0,0,0,1.03-2.2m-13.017-5.007a3.629,3.629,0,0,0,.367-.134c.06-.026.115-.052.166-.078a1.783,1.783,0,0,0,.167-.1c.191-.127.291-.261.284-.384h0a7.235,7.235,0,0,0-.11-.941c-.021-.113-.045-.224-.071-.332q-.032-.135-.07-.266a4.662,4.662,0,0,0-1.365-2.243,4.974,4.974,0,0,0-3.375-1.153c-.171,0-.346.006-.524.019a5.939,5.939,0,0,0-3.992,1.877c-.063.068-.125.138-.184.209s-.122.15-.18.227q-.162.216-.3.445a5.652,5.652,0,0,0-.784,3.579c.33,3.048,2.861,4.979,6.155,4.7a7.839,7.839,0,0,0,3.26-.966c.049-.03.1-.061.146-.093s.094-.064.141-.1a3.493,3.493,0,0,0,1-1.094,2.832,2.832,0,0,0-1.995-1.424,2.006,2.006,0,0,0-.487-.023,1.962,1.962,0,0,0-.895.277c-.02.013-.041.027-.06.041a3.308,3.308,0,0,1,.175.747c0,.022.006.042.008.064s0,.074,0,.11c0,.059,0,.116,0,.172a1.141,1.141,0,0,1-.282.726.51.51,0,0,1-.42.155,1.052,1.052,0,0,1-.625-.306,1.927,1.927,0,0,1-.275-.332c-.032-.048-.063-.1-.092-.149a5.106,5.106,0,0,1-.454-1.13c-.016-.057-.032-.114-.047-.172s-.029-.115-.043-.172c-.088-.364-.154-.726-.2-1.048-.009-.058-.017-.115-.025-.171l0-.034-.019-.138-.01-.072.185.013.026,0,.217.013.171.01a22.185,22.185,0,0,0,2.853-.053,8.053,8.053,0,0,0,1.229-.187c.058-.014.114-.028.168-.043s.113-.031.166-.048m-10.924,4.205c.035-.063.069-.128.1-.193s.063-.142.09-.215a3.149,3.149,0,0,0,.171-1.476,3.1,3.1,0,0,0-.608-1.511q-.072-.1-.15-.191c-.047-.056-.1-.112-.146-.167a8.7,8.7,0,0,0-2.648-1.783l-.191-.091-.2-.093c-.4-.179-.785-.344-1.151-.5-.248-.1-.487-.205-.71-.3h0c-.036-.016-.071-.033-.106-.052a2.066,2.066,0,0,1-.193-.118,2,2,0,0,1-.252-.2,2.028,2.028,0,0,1-.28-.327,1.966,1.966,0,0,1-.154-.27,1.879,1.879,0,0,1-.081-.2,1.723,1.723,0,0,1-.075-.319,1.022,1.022,0,0,1,.19-.765,1.047,1.047,0,0,1,.718-.391,1.152,1.152,0,0,1,.847.236,1.273,1.273,0,0,1,.479.858,2.673,2.673,0,0,1,.014.755,1.913,1.913,0,0,0,1.342.319,2.351,2.351,0,0,0,.517-.126c.06-.022.119-.046.176-.073s.118-.058.174-.091a1.9,1.9,0,0,0,.551-.476,1.543,1.543,0,0,0,.314-1.176c-.09-.655-.734-2.137-4.765-1.751A7.01,7.01,0,0,0,237.112,545l-.026.035a3.136,3.136,0,0,0-.239.361,2.861,2.861,0,0,0-.166.344,2.651,2.651,0,0,0-.158,1.415c.292,1.9,1.995,3.339,5.205,4.394a1.964,1.964,0,0,1,1.432,1.556,1.209,1.209,0,0,1-.96,1.451.9.9,0,0,1-.2,0,.987.987,0,0,1-.18-.033,1.155,1.155,0,0,1-.192-.073,1.11,1.11,0,0,1-.626-.809c0-.016,0-.032-.005-.048-.008-.071-.014-.143-.017-.215s0-.133,0-.2a3.381,3.381,0,0,1,.058-.562,2.355,2.355,0,0,0-1.26-.334,2.252,2.252,0,0,0-.3.02,2.65,2.65,0,0,0-.47.109c-.078.026-.154.055-.229.087s-.133.061-.2.1a2.29,2.29,0,0,0-.791.672,1.612,1.612,0,0,0-.187.346,1.478,1.478,0,0,0-.068.216,1.473,1.473,0,0,0-.006.579c.372,1.877,3.415,1.835,5.2,1.643a8.258,8.258,0,0,0,3.907-1.411q.135-.1.261-.212t.243-.23c.084-.086.164-.174.238-.267a3.328,3.328,0,0,0,.308-.457m74.725-5.439a1.657,1.657,0,0,1-.669,1.093,2.1,2.1,0,0,1-1.008.4,1.727,1.727,0,0,1-.542.674c-.031.023-.064.043-.1.064,1.182.947,2.067,2.122,1.851,3.585a2.927,2.927,0,0,1-2.06,2.413c-.884,1.2-2.615,1.453-3.939,1.453a10.931,10.931,0,0,1-1.4-.09c-1.94-.251-4.169-1.155-4.067-2.872a1.465,1.465,0,0,1,.557-1.052,2.263,2.263,0,0,1,1.01-.463,1.538,1.538,0,0,1,.475-.651,1.974,1.974,0,0,1,.316-.21,5.573,5.573,0,0,1-.954-1.07,5.746,5.746,0,0,1-2.575,2.794,4.54,4.54,0,0,1-3.335,1.591.957.957,0,0,1-.012.3,1.721,1.721,0,0,1-1.455,1.209c-.266,1.087-1.758,1.33-3.035,1.33-.332,0-.649-.016-.926-.038a7.25,7.25,0,0,1-5.009-2.528,7.441,7.441,0,0,1-1.7-5.355,7.1,7.1,0,0,1,2.577-4.944,9.008,9.008,0,0,1,.9-.682q.254-.257.537-.5a10.461,10.461,0,0,1,7.422-2.355,9.23,9.23,0,0,1,6.153,2.9,5.087,5.087,0,0,1,1.009,1.932,4.08,4.08,0,0,1,.885-.485c1.04-1.387,3.353-1.685,4.969-1.485,1.009.125,2.935.62,3.75,1.684a1.771,1.771,0,0,1,.371,1.365m-.644-1.156c-.746-.974-2.563-1.433-3.519-1.551a5.931,5.931,0,0,0-4.237.917,2.712,2.712,0,0,0-.268.257,2.466,2.466,0,0,0-.2.246,2.372,2.372,0,0,0-.4,1.068c-.277,2.2,1.7,3.581,3.206,4.431A2.151,2.151,0,0,1,317.4,554.1a.947.947,0,0,1-1.072.848,1.014,1.014,0,0,1-.459-.193.81.81,0,0,1-.371-.708c0-.019.006-.039.01-.06a1.912,1.912,0,0,1,.244-.65,2.477,2.477,0,0,0-1.593-.884,1.641,1.641,0,0,0-.209-.013,1.965,1.965,0,0,0-.454.056,2.008,2.008,0,0,0-.2.058c-.06.021-.12.045-.177.072a1.743,1.743,0,0,0-.383.234,1.279,1.279,0,0,0-.3.347,1.045,1.045,0,0,0-.081.173,1.091,1.091,0,0,0-.045.176c-.006.035-.011.07-.014.107-.045.706.388,1.306,1.286,1.784a5.7,5.7,0,0,0,.659.295,7.857,7.857,0,0,0,.932.284,9.094,9.094,0,0,0,.9.17,8.733,8.733,0,0,0,3.417-.152c.053-.016.1-.033.153-.05.091-.031.181-.063.266-.1s.172-.076.253-.118A2.524,2.524,0,0,0,321.6,553.8c.2-1.351-.682-2.457-1.84-3.357l-.16-.122c-.057-.043-.114-.084-.171-.126-.46-.33-.95-.63-1.424-.9a1.879,1.879,0,0,1-.57-.612,2.278,2.278,0,0,1-.3-.765,1.581,1.581,0,0,1-.017-.5.918.918,0,0,1,.358-.622.971.971,0,0,1,.332-.161,1,1,0,0,1,.4-.026.893.893,0,0,1,.59.356l0,.007a.892.892,0,0,1,.175.65,1.669,1.669,0,0,1-.276.7,2.781,2.781,0,0,0,1.492.855,1.8,1.8,0,0,0,.291.018c.059,0,.119,0,.178-.011a1.807,1.807,0,0,0,.181-.028,1.751,1.751,0,0,0,.69-.3,1.3,1.3,0,0,0,.534-.866,1.439,1.439,0,0,0-.3-1.108m-10.009,3.858q.045-.114.085-.23a7.55,7.55,0,0,0,.384-1.674,5.019,5.019,0,0,0-.009-1.216c-.009-.073-.021-.144-.034-.216s-.026-.135-.042-.2a4.716,4.716,0,0,0-.98-1.957,8.878,8.878,0,0,0-5.917-2.771q-.38-.032-.765-.032a10.258,10.258,0,0,0-5.581,1.688,8.854,8.854,0,0,0-.731.544c-.031.025-.062.049-.093.075-.192.163-.373.333-.543.508a6.609,6.609,0,0,0-1.932,4.173,7.075,7.075,0,0,0,1.614,5.123,6.963,6.963,0,0,0,4.782,2.427,8.8,8.8,0,0,0,2.2-.056h.006q.085-.016.164-.034c.059-.013.114-.028.169-.043.636-.178,1-.486,1.094-.92a.626.626,0,0,0,0-.24.746.746,0,0,0-.056-.176,1.071,1.071,0,0,0-.106-.18,2.879,2.879,0,0,0-.92-.727,2.816,2.816,0,0,1-.394.156c-.063.02-.127.039-.194.057s-.132.034-.2.049a7.212,7.212,0,0,1-1.756.148c-.078,0-.155-.007-.228-.013s-.168-.016-.251-.028a4.55,4.55,0,0,1-.489-.093,4.183,4.183,0,0,1-2.228-1.379,4.731,4.731,0,0,1-.971-1.962,5.269,5.269,0,0,1-.118-.7,5.474,5.474,0,0,1-.024-.63c0-.127.007-.254.018-.382a5.679,5.679,0,0,1,.854-2.518q.166-.266.362-.518c.133-.171.276-.338.428-.5a6.994,6.994,0,0,1,.6-.562,7.2,7.2,0,0,1,5.183-1.645,7.705,7.705,0,0,1,2.288.57,4.974,4.974,0,0,1,1.838,1.3c.016.019.033.038.049.057a3.5,3.5,0,0,1,.765,2.667c-.074.722-.618,3.426-1.917,3.479a.716.716,0,0,1-.207-.025.7.7,0,0,1-.157-.063.77.77,0,0,1-.145-.1.871.871,0,0,1-.067-.065,1.042,1.042,0,0,1-.249-.83,20.454,20.454,0,0,1,.6-2.682l.073-.272c.023-.086.046-.17.068-.256s.043-.163.064-.245c.093-.361.181-.724.254-1.086a6.035,6.035,0,0,0-3.4-1.105c-.1-.01-.193-.015-.289-.019a4.488,4.488,0,0,0-.763.04,4.973,4.973,0,0,0-.6.118,5.75,5.75,0,0,0-1.948.947c-.028.021-.057.041-.085.063q-.2.152-.38.319-.209.189-.394.4a4.769,4.769,0,0,0-1.24,2.659c-.17,1.612.84,3.553,2.561,3.76a3.322,3.322,0,0,0,2.755-1.027l.167-.217.123.244a2.646,2.646,0,0,0,2.05,1.478,4.06,4.06,0,0,0,2.161-.368,4.241,4.241,0,0,0,.406-.22,4.531,4.531,0,0,0,.394-.272,5.922,5.922,0,0,0,1.768-2.379c.029-.068.057-.138.085-.208" transform="translate(0)" fill="#381235"/>
    <path id="Trazado_876" data-name="Trazado 876" d="M250.513,553.675c-.027.072-.057.144-.09.215s-.064.129-.1.193a3.3,3.3,0,0,1-.308.457c-.075.093-.155.181-.238.267s-.159.156-.243.23-.171.145-.261.212a8.26,8.26,0,0,1-3.907,1.411c-1.782.192-4.824.234-5.2-1.643a1.469,1.469,0,0,1,.006-.579,1.455,1.455,0,0,1,.068-.216,1.6,1.6,0,0,1,.188-.346,2.291,2.291,0,0,1,.791-.672c.064-.034.13-.066.2-.1s.151-.061.229-.087a2.683,2.683,0,0,1,.47-.109,2.25,2.25,0,0,1,.3-.02,2.355,2.355,0,0,1,1.26.334,3.384,3.384,0,0,0-.058.562c0,.066,0,.132,0,.2s.009.144.017.215c0,.016,0,.032.005.048a1.11,1.11,0,0,0,.626.809,1.152,1.152,0,0,0,.192.072.988.988,0,0,0,.18.033.923.923,0,0,0,.2,0,1.208,1.208,0,0,0,.96-1.451,1.964,1.964,0,0,0-1.432-1.557c-3.21-1.054-4.913-2.492-5.205-4.393a2.652,2.652,0,0,1,.158-1.416,2.914,2.914,0,0,1,.166-.343,3.23,3.23,0,0,1,.239-.361l.026-.035a7.008,7.008,0,0,1,4.534-2.213c4.031-.387,4.675,1.1,4.765,1.75a1.545,1.545,0,0,1-.313,1.176,1.9,1.9,0,0,1-.551.475c-.056.033-.114.063-.174.091s-.116.051-.176.073a2.333,2.333,0,0,1-.517.126,1.913,1.913,0,0,1-1.342-.319,2.686,2.686,0,0,0-.014-.755,1.272,1.272,0,0,0-.479-.858,1.152,1.152,0,0,0-.847-.237,1.049,1.049,0,0,0-.718.391,1.021,1.021,0,0,0-.19.765,1.7,1.7,0,0,0,.075.319,1.786,1.786,0,0,0,.081.2,1.93,1.93,0,0,0,.154.27,2.062,2.062,0,0,0,.28.328,2.036,2.036,0,0,0,.252.2,2.011,2.011,0,0,0,.193.118c.035.019.07.036.106.052h0c.224.1.462.2.71.3.366.154.755.319,1.151.5l.2.094.192.09a8.706,8.706,0,0,1,2.648,1.783c.05.055.1.11.146.167s.1.126.15.191a3.1,3.1,0,0,1,.608,1.511,3.156,3.156,0,0,1-.171,1.477m11.434-4.107a1.864,1.864,0,0,1-.167.1c-.051.027-.106.053-.166.078a3.61,3.61,0,0,1-.367.134c-.053.017-.109.032-.166.048s-.11.029-.168.043a8.034,8.034,0,0,1-1.229.187,22.172,22.172,0,0,1-2.853.052l-.172-.01-.217-.013-.026,0-.185-.013.01.072.019.138,0,.034c.008.055.016.112.025.171.048.321.114.684.2,1.048.014.058.028.115.043.172s.031.115.047.172a5.1,5.1,0,0,0,.454,1.129c.03.052.06.1.092.149a1.95,1.95,0,0,0,.275.333,1.056,1.056,0,0,0,.624.306.513.513,0,0,0,.42-.155,1.142,1.142,0,0,0,.282-.726c0-.056,0-.114,0-.172,0-.036,0-.073,0-.11,0-.022-.006-.042-.008-.064a3.309,3.309,0,0,0-.175-.747c.019-.014.04-.028.06-.041a1.962,1.962,0,0,1,.895-.277,2,2,0,0,1,.487.023,2.832,2.832,0,0,1,1.995,1.424,3.489,3.489,0,0,1-1,1.094q-.07.05-.141.1c-.048.032-.1.063-.146.093a7.831,7.831,0,0,1-3.26.966c-3.294.284-5.825-1.647-6.155-4.7a5.651,5.651,0,0,1,.784-3.579q.139-.228.3-.445c.058-.077.118-.153.18-.227s.122-.141.184-.209a5.94,5.94,0,0,1,3.992-1.877q.267-.019.524-.019a4.974,4.974,0,0,1,3.375,1.153,4.663,4.663,0,0,1,1.366,2.243c.026.088.049.176.07.266.026.109.05.219.071.332a7.3,7.3,0,0,1,.11.941h0c.006.123-.093.256-.284.384M257.184,546c-.094-.135-.239-.312-.428-.286-.206.028-.461.216-.6,1.43-.021.187-.037.38-.049.57-.007.119-.013.237-.017.354-.005.144-.008.285-.01.419,0,.291,0,.551.013.752l.009.178.178-.016.1-.011.166-.02.173-.024c.481-.07,1.2-.209,1.314-.425.219-.407-.426-2.3-.855-2.921m12.363,6.713q.287-.07.556-.109c.138-.02.272-.035.4-.042a4.539,4.539,0,0,1,3.118.948,1.885,1.885,0,0,1,.643,1.378,2.553,2.553,0,0,1-1.03,2.2c-.072.056-.147.11-.226.163s-.156.1-.24.146a10.672,10.672,0,0,1-4.667.977l-.28.012c-1.293.057-4.321.189-4.59-1.062a.707.707,0,0,1,.01-.307,1.343,1.343,0,0,1,.13-.328,2.72,2.72,0,0,1,1.168-1.075l.426-.2-.458-.117c-.542-.139-1.459-.5-1.507-1.373a1.479,1.479,0,0,1,.012-.273,1.322,1.322,0,0,1,.051-.23,1.3,1.3,0,0,1,.137-.293,1.684,1.684,0,0,1,.348-.393c.048-.04.1-.079.147-.115s.109-.075.163-.109c.118-.074.232-.137.332-.191.056-.031.106-.058.149-.083a3.1,3.1,0,0,0,.935-.778l.14-.169-.2-.1a3.459,3.459,0,0,1-2-2.939,3.83,3.83,0,0,1,.594-2.26,4.465,4.465,0,0,1,.289-.409,4.805,4.805,0,0,1,.351-.4,5.93,5.93,0,0,1,3.788-1.689q.19-.01.385-.011a7.825,7.825,0,0,1,1.391.128l.184.036c.062.013.123.026.184.041a5.536,5.536,0,0,1,1.065.358l.193.09.048-.208a4.052,4.052,0,0,0,.092-1.005c0-.017,0-.033,0-.05,0-.045,0-.089-.008-.133,0-.061-.011-.121-.018-.18a3.643,3.643,0,0,0-.208-.831,3.175,3.175,0,0,1,.982-.211,1.631,1.631,0,0,1,1.206.412,1.569,1.569,0,0,1,.47,1.116,1.892,1.892,0,0,1-1.006,1.446c-.062.039-.124.075-.187.109s-.123.064-.184.092l-.015.007-.2.09.115.127.043.048c.028.031.052.063.078.094.04.047.079.095.115.144s.068.1.1.144.07.111.1.168.069.128.1.193a2.769,2.769,0,0,1,.237.793,2.993,2.993,0,0,1,.03.326c0,.005,0,.01,0,.015,0,.145,0,.289-.009.431a4.514,4.514,0,0,1-1.341,2.939c-.042.041-.083.083-.126.123-.066.062-.135.121-.2.179-.117.1-.237.189-.361.275a5.758,5.758,0,0,1-3.043,1l-.164.008-.023.007a1.429,1.429,0,0,0-1.151,1.34c0,.055,0,.113,0,.172,0,.039,0,.078,0,.119l0,.054.011.22.24-.132c.08-.044.16-.086.24-.127.184-.095.368-.182.552-.264a8.429,8.429,0,0,1,1.392-.479m-2.272-5.006a3.177,3.177,0,0,0,.592,1.866,1.447,1.447,0,0,0,.163.167,1.206,1.206,0,0,0,.16.121.871.871,0,0,0,.456.138h.035c.448-.02.9-.785.826-2.414a3.267,3.267,0,0,0-.737-2.211.828.828,0,0,0-.6-.24.669.669,0,0,0-.467.233,2.178,2.178,0,0,0-.413,1.232c-.006.063-.011.128-.016.195s-.008.145-.01.22q-.01.323.008.693m2.2,7.615c-1.262.056-1.88.087-3.147.157l-.122.007-.033.118a.712.712,0,0,0-.015.247c.026.466.406.771,1.048.868a3.2,3.2,0,0,0,.482.034q.1,0,.213-.005c.255-.013.508-.034.758-.062a9.55,9.55,0,0,0,2.178-.478l.22-.081-.143-.185a1.575,1.575,0,0,0-1.438-.621m17.518-9.149.008-.378.005-.279.019-.9c-.356-1.384-2.827-1.41-3.885-1.42a2.32,2.32,0,0,0-1.622.569.9.9,0,0,0-.248.407.56.56,0,0,0-.018.139.252.252,0,0,0,.005.037.348.348,0,0,0,.074.162c.011.013.021.026.031.036a1.306,1.306,0,0,1,.661,1.322l-.008,5.677-.053.05a.938.938,0,0,1-.654.276h0a.888.888,0,0,1-.635-.253,1.072,1.072,0,0,1-.173-.22,1.56,1.56,0,0,1-.174-.438,2.523,2.523,0,0,1-.066-.588l-.015-3.721V546l0-1.035v-.434A3.812,3.812,0,0,0,277,543.238a2.779,2.779,0,0,0-2.381,1.125,1.021,1.021,0,0,0-.065.2,1.045,1.045,0,0,0-.022.181v.006a.405.405,0,0,0,.111.273,1.763,1.763,0,0,1,.639,1.423l.113,4.937a2.254,2.254,0,0,0,.674,1.688,4.4,4.4,0,0,0,3.029,1.18h.007a4.619,4.619,0,0,0,3.175-1.141l.148-.138.112.168a2.6,2.6,0,0,0,2.111,1.118,4.493,4.493,0,0,0,1.345-.189c.057-.017.114-.036.169-.056s.111-.042.164-.064a1.459,1.459,0,0,0,1.027-1.119.356.356,0,0,0-.028-.157,2.124,2.124,0,0,1-.434-1.4l.086-4.258,0-.212,0-.2Zm7.823.612a1.215,1.215,0,0,1,.874-.334,1.9,1.9,0,0,1,.925.293,1.436,1.436,0,0,1,.151.114,1.159,1.159,0,0,1,.143.147c.016.02.035.04.05.062a2.152,2.152,0,0,0,1.147-1.909,1.356,1.356,0,0,0-.326-1.028,1.993,1.993,0,0,0-1.432-.553,3.049,3.049,0,0,0-2.348.969,2.855,2.855,0,0,0-.195.234,2.824,2.824,0,0,0-.162.242c-.032.054-.063.109-.091.165l-.171.339-.125-.309-.017-.043c-.016-.04-.034-.077-.051-.115s-.049-.1-.075-.155a2.183,2.183,0,0,0-2.045-1.194,3.044,3.044,0,0,0-2.586,1.025,1.278,1.278,0,0,0-.1.2,1.172,1.172,0,0,0-.056.2,1.213,1.213,0,0,0-.022.156.075.075,0,0,0,0,.016,2.166,2.166,0,0,1,1.079,1.981l-.112,4.044c-.016.565-.1,1.229-.169,1.715-.037.28-.07.522-.073.635a.293.293,0,0,0,.1.269,9.573,9.573,0,0,0,2.426.287c.316.012.789.029,1.249.036l.174,0h.174a6.206,6.206,0,0,0,.94-.043.408.408,0,0,0,.2-.3,5.149,5.149,0,0,0-.061-.628,8.336,8.336,0,0,1-.1-1.357l.184-3.929.008-.172v-.016a1.455,1.455,0,0,1,.016-.153,1.525,1.525,0,0,1,.48-.893m20.049,2.661a7.55,7.55,0,0,1-.384,1.674c-.027.077-.056.154-.085.23s-.055.14-.085.208a5.917,5.917,0,0,1-1.767,2.378,4.53,4.53,0,0,1-.394.272,4.095,4.095,0,0,1-2.567.587,2.646,2.646,0,0,1-2.049-1.478l-.123-.244-.167.217a3.322,3.322,0,0,1-2.755,1.027c-1.721-.208-2.731-2.148-2.561-3.76a4.768,4.768,0,0,1,1.24-2.659c.123-.137.255-.269.394-.4q.182-.167.38-.319c.028-.022.057-.042.085-.063a5.757,5.757,0,0,1,1.948-.947,4.983,4.983,0,0,1,.6-.118,4.5,4.5,0,0,1,.763-.04c.1,0,.194.009.289.019a6.028,6.028,0,0,1,3.4,1.105c-.073.361-.161.724-.254,1.085-.021.082-.042.163-.064.245s-.045.171-.068.256l-.073.272a20.452,20.452,0,0,0-.6,2.682,1.042,1.042,0,0,0,.249.831.865.865,0,0,0,.067.064.755.755,0,0,0,.145.1.717.717,0,0,0,.363.087c1.3-.052,1.843-2.757,1.917-3.479a3.5,3.5,0,0,0-.765-2.667c-.016-.019-.033-.037-.049-.056a4.965,4.965,0,0,0-1.838-1.3,7.716,7.716,0,0,0-2.288-.571,7.2,7.2,0,0,0-5.183,1.646,6.9,6.9,0,0,0-.6.562,6.393,6.393,0,0,0-.428.5,6.287,6.287,0,0,0-.362.518,5.677,5.677,0,0,0-.854,2.518c-.011.128-.016.255-.018.382a5.492,5.492,0,0,0,.024.63,5.275,5.275,0,0,0,.118.7,4.729,4.729,0,0,0,.971,1.962,4.181,4.181,0,0,0,2.228,1.38,4.658,4.658,0,0,0,.489.092c.083.012.166.021.251.028s.15.01.229.013a7.234,7.234,0,0,0,1.756-.148c.068-.015.135-.031.2-.048s.131-.037.194-.057a2.832,2.832,0,0,0,.394-.156,2.874,2.874,0,0,1,.92.727,1.053,1.053,0,0,1,.106.18.748.748,0,0,1,.056.176.628.628,0,0,1,0,.24c-.089.434-.457.742-1.094.92-.054.015-.11.029-.169.043s-.108.023-.165.034h-.005a8.775,8.775,0,0,1-2.2.055,6.961,6.961,0,0,1-4.782-2.427,7.075,7.075,0,0,1-1.614-5.123,6.606,6.606,0,0,1,1.932-4.173q.256-.263.543-.509c.03-.026.062-.049.092-.075a8.859,8.859,0,0,1,.731-.544,10.262,10.262,0,0,1,5.581-1.688q.385,0,.765.032a8.878,8.878,0,0,1,5.917,2.771,4.711,4.711,0,0,1,.98,1.957c.015.067.03.134.042.2s.025.143.034.216a5.018,5.018,0,0,1,.009,1.216m-7.311-.61c-.093-.183-.569-.228-.589-.23a.985.985,0,0,0-.726.262,2.65,2.65,0,0,0-.648.911c-.025.054-.049.109-.071.164s-.044.11-.064.166a3.812,3.812,0,0,0-.21.938,1.574,1.574,0,0,0,.107.807.876.876,0,0,0,.118.19.728.728,0,0,0,.138.127.655.655,0,0,0,.32.119l.064,0c.419,0,.755-.374,1.026-1.141.617-1.748.621-2.147.535-2.317m8.229-.408c-.277,2.2,1.7,3.581,3.206,4.431a2.152,2.152,0,0,1,1.059,1.843.948.948,0,0,1-1.072.849,1.012,1.012,0,0,1-.459-.193.81.81,0,0,1-.371-.708c0-.019.006-.04.01-.06a1.914,1.914,0,0,1,.244-.649,2.473,2.473,0,0,0-1.593-.884,1.57,1.57,0,0,0-.209-.013,1.965,1.965,0,0,0-.454.056c-.068.016-.135.035-.2.058s-.12.045-.177.072a1.727,1.727,0,0,0-.383.234,1.294,1.294,0,0,0-.3.347,1,1,0,0,0-.125.349,1,1,0,0,0-.014.107c-.045.706.388,1.306,1.286,1.784a5.69,5.69,0,0,0,.659.295,7.871,7.871,0,0,0,.932.284,9.117,9.117,0,0,0,.9.17,8.726,8.726,0,0,0,3.417-.152c.052-.016.1-.033.153-.05.091-.031.181-.063.266-.1s.172-.076.253-.117a2.524,2.524,0,0,0,1.432-1.971c.2-1.351-.682-2.457-1.84-3.357l-.16-.122-.172-.126c-.46-.33-.95-.63-1.424-.9a1.883,1.883,0,0,1-.57-.612,2.278,2.278,0,0,1-.3-.765,1.584,1.584,0,0,1-.017-.5.919.919,0,0,1,.358-.622.971.971,0,0,1,.332-.161.989.989,0,0,1,.4-.025.892.892,0,0,1,.59.356l0,.007a.893.893,0,0,1,.175.65,1.673,1.673,0,0,1-.276.7,2.777,2.777,0,0,0,1.492.855,1.808,1.808,0,0,0,.291.018q.089,0,.178-.011c.061-.007.121-.016.181-.028a1.758,1.758,0,0,0,.69-.3,1.3,1.3,0,0,0,.535-.865,1.439,1.439,0,0,0-.3-1.108c-.746-.974-2.563-1.434-3.519-1.552a5.933,5.933,0,0,0-4.237.917,2.667,2.667,0,0,0-.268.257,2.425,2.425,0,0,0-.2.246,2.374,2.374,0,0,0-.4,1.068" transform="translate(-2.642 -0.601)" fill="#fa6057"/>
  </g>
</svg>
