<svg xmlns="http://www.w3.org/2000/svg" width="28.867" height="27.794" viewBox="0 0 28.867 27.794">
  <g id="Grupo_8" data-name="Grupo 8" opacity="0.5">
    <path id="Trazado_8" data-name="Trazado 8" d="M532.262,656.971h2.5a1.281,1.281,0,0,0,1.278-1.279v-9.653a1.28,1.28,0,0,0-1.278-1.278h-2.5a1.279,1.279,0,0,0-1.278,1.278v9.653A1.281,1.281,0,0,0,532.262,656.971Zm-.221-10.933a.223.223,0,0,1,.221-.22h2.5a.22.22,0,0,1,.22.22v9.653a.222.222,0,0,1-.22.221h-2.5a.223.223,0,0,1-.221-.221Z" transform="translate(-527.134 -632.713)" fill="#8097a4"/>
    <path id="Trazado_9" data-name="Trazado 9" d="M542.346,655.795h2.5a1.28,1.28,0,0,0,1.279-1.279V638.907a1.279,1.279,0,0,0-1.279-1.279h-2.5a1.28,1.28,0,0,0-1.279,1.279v15.609A1.281,1.281,0,0,0,542.346,655.795Zm-.22-16.888a.22.22,0,0,1,.22-.22h2.5a.222.222,0,0,1,.221.22v15.609a.223.223,0,0,1-.221.221h-2.5a.221.221,0,0,1-.22-.221Z" transform="translate(-528.797 -631.536)" fill="#8097a4"/>
    <path id="Trazado_10" data-name="Trazado 10" d="M552.43,654.592h2.5a1.28,1.28,0,0,0,1.279-1.279v-21.7a1.28,1.28,0,0,0-1.279-1.279h-2.5a1.282,1.282,0,0,0-1.279,1.279v21.7A1.283,1.283,0,0,0,552.43,654.592Zm-.221-22.978a.222.222,0,0,1,.221-.22h2.5a.22.22,0,0,1,.22.22v21.7a.222.222,0,0,1-.22.221h-2.5a.223.223,0,0,1-.221-.221Z" transform="translate(-530.461 -630.333)" fill="#8097a4"/>
    <path id="Trazado_11" data-name="Trazado 11" d="M554.714,657.069H527.433V630.862a.529.529,0,1,0-1.059,0V657.6a.53.53,0,0,0,.529.529h27.807a.529.529,0,1,0,0-1.059Z" transform="translate(-526.374 -630.333)" fill="#8097a4"/>
  </g>
</svg>
