<svg xmlns="http://www.w3.org/2000/svg" width="28.984" height="27.902" viewBox="0 0 28.984 27.902">
  <g id="Grupo_6" data-name="Grupo 6" transform="translate(0 0)">
    <g id="Grupo_5" data-name="Grupo 5">
      <path id="Trazado_4" data-name="Trazado 4" d="M499,657.043h-27.39V630.734a.531.531,0,0,0-1.062,0v26.84a.53.53,0,0,0,.531.531h27.919a.531.531,0,1,0,.007-1.062h0Z" transform="translate(-470.543 -630.203)" fill="#bdcad1"/>
      <path id="Trazado_5" data-name="Trazado 5" d="M475.459,655.2a.533.533,0,0,0,.715-.23l3.7-7.227,3.925,3.465a.531.531,0,0,0,.749-.047.541.541,0,0,0,.1-.155l3.022-7.572,4.528,5.5a.532.532,0,0,0,.91-.156l3.273-9.029a.533.533,0,1,0-1-.362h0l-2.959,8.154-4.509-5.476a.531.531,0,0,0-.748-.072.524.524,0,0,0-.155.213l-3.075,7.707-3.872-3.419a.531.531,0,0,0-.75.046.514.514,0,0,0-.074.109l-4.017,7.835a.53.53,0,0,0,.236.714Z" transform="translate(-471.305 -631.66)" fill="#bdcad1"/>
      <path id="Trazado_6" data-name="Trazado 6" d="M500.81,637.507a.64.64,0,1,0-.64-.64h0a.639.639,0,0,0,.638.64Z" transform="translate(-475.43 -631.197)" fill="#bdcad1"/>
    </g>
  </g>
</svg>
