<?xml version="1.0" encoding="utf-8"?>
<!-- Generator: Adobe Illustrator 27.0.1, SVG Export Plug-In . SVG Version: 6.00 Build 0)  -->
<svg version="1.1" id="Capa_1" xmlns="http://www.w3.org/2000/svg" xmlns:xlink="http://www.w3.org/1999/xlink" x="0px" y="0px"
	 viewBox="0 0 36.42 36.42" style="enable-background:new 0 0 36.42 36.42;" xml:space="preserve">
<style type="text/css">
	.st0{fill:#BDCAD1;stroke:#FFFFFF;stroke-width:0.18;stroke-miterlimit:10;}
</style>
<g id="Grupo_3973" transform="translate(-452.03 -28.961)">
	<path id="Trazado_5" class="st0" d="M456.61,41.88v0.02V41.88z"/>
	<path id="Trazado_6" class="st0" d="M456.6,41.86C456.6,41.86,456.6,41.86,456.6,41.86z"/>
	<path id="Trazado_7" class="st0" d="M456.61,41.88L456.61,41.88z"/>
	<path id="Trazado_8" class="st0" d="M478.52,36.98L478.52,36.98z"/>
	<path id="Trazado_9" class="st0" d="M456.61,41.89L456.61,41.89z"/>
	<path id="Trazado_10" class="st0" d="M456.61,41.93L456.61,41.93z"/>
	<path id="Trazado_3285" class="st0" d="M462.47,37.24c0,0,0.46-0.07,0.57-0.09c0.11-0.02,0.29-0.14,0.29-0.18s0.01-0.33,0.01-0.33
		l0.32-0.34l0.44-0.42l0.84-0.1l1.04-0.25l1.04,0.1l0.49,0.16c0,0,0.73,0.08,0.97,0.1c0.31,0.07,0.61,0.18,0.89,0.34
		c0.17,0.1,0.76,0.34,0.88,0.4c0.23,0.06,0.46,0.1,0.69,0.13c0.15-0.01,0.3-0.01,0.45,0c0.21,0.11,0.42,0.23,0.61,0.37l0.81,0.66
		l0.68,0.4l0.92,0.1l0.62,0.26c0,0,0.01,0.25,0.01,0.32s0.03,0.27,0.03,0.27l0.85,0.16l0.74,0.28l0.04,0.33c0,0-0.2,0.13-0.39,0.23
		c-0.16,0.09-0.3,0.2-0.42,0.33c-0.13,0.13-0.42,0.02-0.74,0s-0.72-0.07-1.06-0.13c-0.27-0.05-0.55-0.09-0.82-0.11
		c-0.17,0.03-0.33,0.09-0.48,0.18l-0.48,0.21l-0.45-0.22c0.01-0.11,0.04-0.22,0.11-0.32c0.11-0.16,0.16-0.12,0.16-0.12l0.42-0.32
		l0.15-0.1l-0.15-0.42l-0.13-0.05l-1.17,0.01l-0.54-0.14l-0.11-0.37l-0.03-0.39l-0.35-0.06l-0.73-0.12l-0.41-0.36
		c-0.09-0.1-0.18-0.2-0.26-0.3c-0.28-0.1-0.56-0.18-0.85-0.24l-0.45,0.15c-0.36,0-0.72-0.02-1.07-0.06
		c-0.14-0.02-0.24-0.14-0.23-0.28c0,0-0.01-0.36-0.11-0.4c-0.14-0.01-0.29,0.01-0.42,0.05l-0.45,0.22c0,0-0.4,0.15-0.48,0.16
		s-0.37,0-0.37,0l-0.41,0.09l-0.09,0.25c0,0-0.2,0.23-0.28,0.26s-0.28,0.07-0.45,0.13c-0.14,0.03-0.29,0.03-0.44,0l-0.28-0.13
		C462.3,37.48,462.47,37.24,462.47,37.24z"/>
	<path id="Trazado_3286" class="st0" d="M471.16,42.9c0.17,0.06,0.34,0.12,0.5,0.2c0.11,0.13,0.24,0.26,0.37,0.38
		c0.18,0.04,0.36,0.06,0.54,0.06c0.17,0,0.34-0.04,0.5-0.1c0.2-0.06,0.41-0.11,0.62-0.13l0.66,0.15l0.25-0.08
		c0,0,0.35-0.28,0.44-0.38c0.09-0.09-0.05-0.41-0.05-0.41l-0.49-0.01l-0.69,0.26l-0.54,0.01l-0.7-0.28l-0.53-0.04
		c-0.12,0-0.24,0.02-0.35,0.07c-0.1,0.06-0.21,0.12-0.32,0.16L471.16,42.9z"/>
	<path id="Trazado_3287" class="st0" d="M476.2,42.75l0.68,0.27c0,0,0.9,0.08,1.02,0.08s0.35-0.06,0.66-0.06s1.1,0.1,1.1,0.1
		l0.08,0.26c0.09,0.12,0.19,0.23,0.29,0.34c0.19,0.06,0.4,0.05,0.58-0.04c0.2-0.1,0.4-0.22,0.58-0.35l0.33-0.28h0.65
		c0.2-0.05,0.38-0.13,0.56-0.23c0.16-0.06,0.33-0.09,0.5-0.07c0.26,0.04,0.52,0.12,0.76,0.23c0.08-0.02,0.16-0.07,0.21-0.14
		c0.01-0.04,0.04-0.1,0.08-0.22c-0.02-0.25-0.13-0.48-0.32-0.64c-0.22-0.09-0.45-0.16-0.68-0.21c-0.24-0.06-0.44,0.05-0.32-0.15
		c0.12-0.2,0.21-0.3,0.27-0.39c0.05-0.09-0.07-0.41-0.07-0.41s-0.38-0.04-0.65-0.05c-0.26-0.01-0.74-0.09-0.74-0.09l-1.09-0.27
		c-0.14-0.05-0.3-0.07-0.45-0.05c-0.36,0.09-0.71,0.2-1.05,0.34l-0.36-0.07l-0.39-0.18l-0.64-0.09l-0.49,0.2c0,0-0.21,0.18-0.2,0.35
		c0.01,0.18,0.07,0.29,0,0.35c-0.14,0.07-0.28,0.12-0.42,0.15c-0.05,0.07-0.06,0.15-0.04,0.23c0.04,0.12-0.04,0.16,0.2,0.29
		c0.18,0.09,0.37,0.14,0.57,0.16l0.33-0.07c0.21-0.1,0.44-0.15,0.68-0.14c0.15,0.03,0.3,0.08,0.45,0.13
		c0.33,0.1,0.41-0.14,0.45,0.15s-0.04,0.35-0.04,0.35l-0.3,0.06c-0.14,0.04-0.28,0.06-0.42,0.06h-0.58l-0.27-0.01l-0.38-0.04
		c0,0-0.04-0.01-0.25-0.1c-0.12-0.05-0.24-0.1-0.37-0.13h-0.36c-0.05,0.04-0.09,0.09-0.12,0.14L476.2,42.75z"/>
	<path id="Trazado_3288" class="st0" d="M486.39,43.18l0.23,0.15l0.53,0.04l0.58-0.05l0.41-0.19l-0.06-0.26
		c-0.1-0.04-0.2-0.06-0.3-0.09h-0.5l-0.31-0.12c0,0-0.4,0.01-0.5,0.02c-0.13,0.04-0.25,0.09-0.37,0.15L486.39,43.18z"/>
	<path id="Trazado_3289" class="st0" d="M456.37,42.94l0.12,0.28l0.18,2.31l0.27,0.08c0.08-0.09,0.16-0.18,0.26-0.25
		c0.24-0.19,0.43-0.35,0.43-0.35l0.05-0.87l-0.11-1.43l0.11-0.65c0.01-0.05,0.02-0.09,0.05-0.14l-1.39,1.02L456.37,42.94z"/>
	<path id="Trazado_3290" class="st0" d="M456.3,48.36v-0.5l0.51-0.14l-0.04-0.33l0.05-0.42l0.78-0.34l0.78-0.89l-0.08-0.07
		l-0.53,0.26l-0.69,0.12l-0.29-0.23c0.04-0.07,0.09-0.13,0.14-0.19l-0.27-0.08l-0.18-2.31l-0.12-0.28H455l-0.92,0.03l-0.11,0.27
		l0.02,0.28c0,0-0.04,0.08-0.25,0.11c-0.21,0.03-0.23,0.12-0.23,0.12l0.02,0.19l0.34,0.23l0.16,0.11l0.55,0.41l0.34,0.44l0.04,0.3
		c-0.15,0.12-0.32,0.22-0.5,0.3c-0.32,0.04-0.64,0.06-0.95,0.06l-0.23,0.3l-0.6,0.7l-0.21,0.42l-0.12,0.02
		c0.07,0.21,0.16,0.42,0.26,0.62c0.16,0.34,0.4,0.62,0.72,0.82c0.53,0.37,0.93,0.56,1.11,0.51c0.23-0.1,0.47-0.13,0.72-0.09
		c0.02,0,0.04,0.01,0.07,0.02l0.21-0.26L456.3,48.36z"/>
	<path id="Trazado_3291" class="st0" d="M458.74,48.87l-0.34-0.25l-0.42,0.05l-0.19,0.09l-0.41-0.23l-0.04-0.27l-1.04,0.02v0.07
		l-0.87,0.48l-0.21,0.26c0.27,0.1,0.53,0.22,0.78,0.36l0.4,0.4l1.38,0.14c0,0,0.24-0.07,0.58-0.16c0.11-0.03,0.21-0.04,0.32-0.05
		l-0.03-0.48L458.74,48.87z"/>
	<path id="Trazado_3292" class="st0" d="M459.78,50.04l0.12-0.51l0.02-0.37l0.34-0.2l0.99-0.05l0.46-0.11
		c0.13-0.03,0.25-0.08,0.37-0.14l0.41-0.39l0.37-0.44l0.99-0.19l0.76-0.63l-0.07-0.2l-0.56-0.14l-0.32-0.35l-0.64-0.37l-0.72-0.05
		l-0.61,0.02l-0.58-0.26l-0.48,0.16l-0.85,0.02h-1.27l-0.13-0.12l-0.78,0.89l-0.78,0.34l-0.05,0.42l0.04,0.33l-0.51,0.14v0.43
		l1.04-0.02l0.04,0.26l0.41,0.23l0.19-0.09l0.42-0.05l0.34,0.25l-0.09,0.44l0.03,0.48c0.26-0.01,0.51,0.03,0.53,0.1
		c0.02,0.07,0.09,0.27,0.14,0.45l0.08-0.02L459.78,50.04z"/>
	<path id="Trazado_3293" class="st0" d="M461.74,53.26c0.12,0.12,0.27,0.2,0.44,0.21c0.18,0.01,0.36-0.01,0.53-0.05
		c0.1-0.07,0.19-0.16,0.25-0.26l0.46-0.01l0.6,0.25c-0.01-0.13-0.02-0.23-0.02-0.23l0.4-0.45c0.1-0.17,0.1-0.39,0-0.56
		c-0.19-0.34-0.41-0.67-0.64-0.98l0.19-0.09c0.16,0.03,0.32,0.02,0.48-0.02c0.11-0.07,0.13,0.02,0.19-0.12
		c0.03-0.17,0.04-0.34,0.03-0.52l-0.21-0.42l-0.24-0.49c-0.09-0.22-0.03-0.48,0.16-0.63c0.18-0.12,0.35-0.26,0.5-0.42l0.03-0.73
		l-0.27-0.74l-0.76,0.63l-0.99,0.19l-0.37,0.44l-0.41,0.39c-0.12,0.06-0.24,0.11-0.37,0.14l-0.46,0.11l-0.99,0.05l-0.34,0.2
		l-0.02,0.37l-0.12,0.52l-0.35,0.27l-0.08,0.02c0.02,0.07,0.04,0.14,0.05,0.21c0,0.09,0.13,0.82,0.13,0.82l0.48,0.52
		c0,0,0.32,0.4,0.64,0.87c0.13,0.2,0.25,0.41,0.34,0.62l0.23-0.12C461.38,53.22,461.56,53.23,461.74,53.26z"/>
	<path id="Trazado_3294" class="st0" d="M465.31,56.9l0.11-0.53l-0.07-0.34l-0.12-0.49l0.2-0.09l0.56-0.08
		c-0.14-0.16-0.26-0.24-0.36-0.37c-0.29-0.21-0.6-0.4-0.93-0.56c-0.35-0.23-0.5-0.3-0.58-0.56c-0.04-0.16-0.07-0.31-0.09-0.47
		l-0.6-0.25l-0.46,0.01c-0.07,0.1-0.15,0.19-0.25,0.26c-0.17,0.04-0.35,0.05-0.53,0.05c-0.17-0.02-0.32-0.09-0.44-0.21
		c-0.18-0.02-0.35-0.03-0.53-0.02l-0.23,0.12c0.09,0.21,0.14,0.36,0.14,0.36l-0.11,0.42c0,0-0.24,0.14,0.05,0.42
		c0.22,0.2,0.45,0.38,0.69,0.54l0.4-0.02c0,0,0.21-0.35,0.29-0.37c0.16,0.01,0.32,0.03,0.48,0.07c0,0,0.16,0.37,0.19,0.47
		s0.37,0.35,0.37,0.35l0.48,0.4l0.05,0.73l0.16,0.23c0,0,0.21-0.05,0.27-0.14c0.05-0.09,0.11-0.16,0.16-0.09
		c0.1,0.1,0.18,0.22,0.24,0.35c0.03,0.12-0.29,0.38,0.11,0.38h0.35l0.05-0.2L465.31,56.9z"/>
	<path id="Trazado_3295" class="st0" d="M472.29,58.53l0.09-0.3c0.08-0.08,0.2-0.11,0.3-0.08c0.13,0.03,0.27,0.06,0.4,0.07
		c0,0,0.01-0.12,0.03-0.23c0.01-0.1,0.01-0.2,0.01-0.3c0-0.09-0.01-0.17-0.03-0.26L473,57.07l0.11-0.2
		c-0.1-0.11-0.23-0.24-0.38-0.38c-0.22-0.23-0.44-0.47-0.64-0.73c-0.13-0.12-0.28-0.2-0.45-0.23l-0.96-0.05l-0.56,0.02l-0.29,0.19
		c0,0-0.45,0.16-0.9,0.35c-0.28,0.15-0.59,0.25-0.9,0.3h-0.9l-0.82-0.05c0,0,0.13-0.21-0.11-0.61c-0.06-0.11-0.14-0.21-0.22-0.31
		l-0.56,0.08l-0.2,0.09l0.12,0.49l0.07,0.34l-0.11,0.53l0.03,0.34l-0.05,0.2h0.66c0.26,0,1.27,0.16,1.27,0.16
		c0.01,0.09,0.07,0.17,0.16,0.21c0.18,0.07,0.37,0.11,0.56,0.12l0.27,0.47c0,0,0.58,0.37,0.72,0.3c0.13-0.07,0.21-0.14,0.21-0.28
		c0.02-0.17-0.01-0.34-0.08-0.49c-0.11-0.21-0.35-0.38-0.19-0.49c0.11-0.1,0.25-0.17,0.4-0.19c0.21-0.05,0.35-0.07,0.37-0.14
		c0.01-0.12,0.01-0.25,0-0.37c0,0-0.13-0.12,0.08-0.23c0.23-0.12,0.48-0.21,0.74-0.26c0.16-0.02,0.53,0.23,0.66,0.28
		c0.15,0.05,0.28,0.14,0.37,0.26c0.08,0.12,0.21,0.21,0.24,0.33c0.01,0.12,0,0.24-0.03,0.35c0,0-0.11,0.4,0.03,0.52
		c0.15,0.26,0.28,0.54,0.36,0.83l0.09-0.01L472.29,58.53z"/>
</g>
</svg>
