<svg xmlns="http://www.w3.org/2000/svg" width="28.906" height="28.905" viewBox="0 0 28.906 28.905">
  <g id="Grupo_9" data-name="Grupo 9" opacity="0.5">
    <path id="Trazado_12" data-name="Trazado 12" d="M601.006,631.05c-.009,0-.017-.009-.027-.012l-.021,0a14.415,14.415,0,0,0-13.533,2.535.473.473,0,0,0-.068.045.356.356,0,0,0-.047.048,14.447,14.447,0,1,0,22.415,16.994c.006-.012.016-.021.022-.033s.01-.031.016-.046a14.441,14.441,0,0,0-7.433-19.022q-.649-.284-1.323-.5Zm8.868,13.737a13.289,13.289,0,0,1-.928,4.881L597.2,644.484l3.961-12.217a13.372,13.372,0,0,1,8.714,12.52Zm-9.762-12.858-3.8,11.731-7.816-9.531a13.316,13.316,0,0,1,11.622-2.2Zm-3.59,26.21a13.344,13.344,0,0,1-8.881-23.311l8.456,10.308.011.012a.624.624,0,0,0,.054.053l.031.028a.6.6,0,0,0,.061.037.427.427,0,0,0,.039.023h0l12.2,5.384a13.366,13.366,0,0,1-11.978,7.466Z" transform="translate(-582.074 -630.334)" fill="#8097a4"/>
  </g>
</svg>
