<svg xmlns="http://www.w3.org/2000/svg" width="26.616" height="26.616" viewBox="0 0 26.616 26.616">
  <g id="Grupo_3904" data-name="Grupo 3904" transform="translate(0.5 0.5)">
    <path id="Rectángulo_729" data-name="Rectángulo 729" d="M2.039-.5H23.576a2.542,2.542,0,0,1,2.539,2.539V23.576a2.542,2.542,0,0,1-2.539,2.539H2.039A2.542,2.542,0,0,1-.5,23.576V2.039A2.542,2.542,0,0,1,2.039-.5ZM23.576,25.1A1.525,1.525,0,0,0,25.1,23.576V2.039A1.525,1.525,0,0,0,23.576.516H2.039A1.525,1.525,0,0,0,.516,2.039V23.576A1.525,1.525,0,0,0,2.039,25.1Z" transform="translate(0 0)" fill="#bcc8ce"/>
    <path id="Línea_112" data-name="Línea 112" d="M25.608.5H.008A.5.5,0,0,1-.5,0,.5.5,0,0,1,.008-.5h25.6a.5.5,0,0,1,.508.5A.5.5,0,0,1,25.608.5Z" transform="translate(0 9.606)" fill="#bcc8ce"/>
    <path id="Línea_113" data-name="Línea 113" d="M0,26.116a.5.5,0,0,1-.5-.508V.008A.5.5,0,0,1,0-.5.5.5,0,0,1,.5.008v25.6A.5.5,0,0,1,0,26.116Z" transform="translate(7.606 0)" fill="#bcc8ce"/>
  </g>
</svg>
