<svg xmlns="http://www.w3.org/2000/svg" width="26.766" height="26.616" viewBox="0 0 26.766 26.616">
  <g id="Grupo_13" data-name="Grupo 13" transform="translate(0 0)" opacity="0.5">
    <g id="Grupo_10" data-name="Grupo 10">
      <path id="Trazado_13" data-name="Trazado 13" d="M645.663,656.375H634.384a.52.52,0,0,1-.521-.52h0V630.28a.52.52,0,0,1,.521-.521h11.279a.521.521,0,0,1,.52.521v25.575a.521.521,0,0,1-.52.52ZM634.9,655.336h10.239V630.8H634.9Z" transform="translate(-633.863 -629.759)" fill="#8097a4"/>
    </g>
    <g id="Grupo_11" data-name="Grupo 11" transform="translate(13.648)">
      <path id="Trazado_14" data-name="Trazado 14" d="M663.546,646.451H651.468a.52.52,0,0,1-.52-.52h0V630.28a.519.519,0,0,1,.519-.521h12.079a.521.521,0,0,1,.52.521v15.651A.522.522,0,0,1,663.546,646.451Zm-11.558-1.038h11.037V630.8H651.988Z" transform="translate(-650.948 -629.759)" fill="#8097a4"/>
    </g>
    <g id="Grupo_12" data-name="Grupo 12" transform="translate(13.648 18.092)">
      <path id="Trazado_15" data-name="Trazado 15" d="M663.546,660.931H651.468a.52.52,0,0,1-.52-.52h0v-7.483a.519.519,0,0,1,.519-.521h12.079a.521.521,0,0,1,.52.521v7.483A.522.522,0,0,1,663.546,660.931Zm-11.558-1.038h11.037v-6.443H651.988Z" transform="translate(-650.948 -652.407)" fill="#8097a4"/>
    </g>
  </g>
</svg>
